<?xml version="1.0" encoding="UTF-8"?>
<svg width="18px" height="22px" viewBox="0 0 18 22" version="1.1" xmlns="http://www.w3.org/2000/svg" xmlns:xlink="http://www.w3.org/1999/xlink">
    <!-- Generator: Sketch 51 (57462) - http://www.bohemiancoding.com/sketch -->
    <title>Groupxxxhdpi/</title>
    <desc>Created with Sketch.</desc>
    <defs></defs>
    <g id="Symbols" stroke="none" stroke-width="1" fill="none" fill-rule="evenodd">
        <g id="Login-blok" transform="translate(-59.000000, -173.000000)" fill="#DFDFDF" fill-rule="nonzero">
            <g id="Group" transform="translate(59.000000, 173.000000)">
                <path d="M9,0 C5.1,0 2,3.1 2,7 L2,9 L0,9 L0,22 L18,22 L18,9 L16,9 L16,7 C16,3.2 12.9,0 9,0 Z M4,7 C4,4.2 6.2,2 9,2 C11.8,2 14,4.2 14,7 L14,9 L4,9 L4,7 Z M16,20 L2,20 L2,11 L16,11 L16,20 Z" id="Shape"></path>
                <rect id="Rectangle-path" x="8" y="14" width="2" height="3"></rect>
            </g>
        </g>
    </g>
</svg>