<?xml version="1.0" encoding="UTF-8"?>
<svg width="24px" height="24px" viewBox="0 0 24 24" version="1.1" xmlns="http://www.w3.org/2000/svg" xmlns:xlink="http://www.w3.org/1999/xlink">
    <!-- Generator: Sketch 51 (57462) - http://www.bohemiancoding.com/sketch -->
    <title>Group Copylogin</title>
    <desc>Created with Sketch.</desc>
    <defs></defs>
    <g id="Symbols" stroke="none" stroke-width="1" fill="none" fill-rule="evenodd">
        <g id="Login-blok" transform="translate(-20.000000, -18.000000)" fill="#FFFFFF" fill-rule="nonzero">
            <g id="Group-Copy" transform="translate(20.000000, 18.000000)">
                <path d="M16,22 L2,22 L2,21 C2,19.3 3.3,18 5,18 L12,18 L12,16 L5,16 C2.2,16 0,18.2 0,21 L0,24 L16,24 L16,22 Z" id="Shape"></path>
                <path d="M8.5,15 C11,15 13,13 13,10.5 C13,8 11,6 8.5,6 C6,6 4,8 4,10.5 C4,13 6,15 8.5,15 Z M8.5,8 C9.9,8 11,9.1 11,10.5 C11,11.9 9.9,13 8.5,13 C7.1,13 6,11.9 6,10.5 C6,9.1 7.1,8 8.5,8 Z" id="Shape"></path>
                <path d="M22,0 L12,0 C10.9,0 10,0.9 10,2 L10,5 L12,5 L12,2 L22,2 L22,13 L17.7,13 L16,14.1 L16,13 L14,13 L14,17.9 L18.3,15 L22,15 C23.1,15 24,14.1 24,13 L24,2 C24,0.9 23.1,0 22,0 Z" id="Shape"></path>
                <polygon id="Shape" points="15.2 10.2 18.7 6.7 20 8 20 4 16 4 17.3 5.3 13.8 8.8"></polygon>
            </g>
        </g>
    </g>
</svg>