<?xml version="1.0" encoding="UTF-8"?>
<svg width="127px" height="126px" viewBox="0 0 127 126" version="1.1" xmlns="http://www.w3.org/2000/svg" xmlns:xlink="http://www.w3.org/1999/xlink">
    <!-- Generator: Sketch 51.2 (57519) - http://www.bohemiancoding.com/sketch -->
    <title>Group 10</title>
    <desc>Created with Sketch.</desc>
    <defs></defs>
    <g id="CRUD---Cadastro-de-Perfil" stroke="none" stroke-width="1" fill="none" fill-rule="evenodd">
        <g id="4--Perfil-e-atribuicoes" transform="translate(-598.000000, -437.000000)" stroke="#9B9B9B" stroke-width="4">
            <g id="Group-10" transform="translate(600.000000, 439.000000)">
                <g id="Group-14">
                    <path d="M48.6692308,113.672906 L60.9646154,113.672906 L70.5276923,102.576265 L70.5276923,53.8593055 C84.1892308,50.6115082 89.6538462,39.5148673 89.6538462,27.0649776 C89.6538462,11.9085902 77.6316923,0 62.3307692,0 C47.0298462,0 35.0076923,11.9085902 35.0076923,27.0649776 C35.0076923,37.0790193 39.3793846,46.2811117 48.6692308,51.1528077 L48.6692308,62.2494485 L54.1338462,67.6624441 L54.1338462,73.0754396 L48.6692308,78.4884351 L48.6692308,86.6079284 L54.1338462,92.0209239 L54.1338462,97.4339195 L48.6692308,102.846915 L48.6692308,113.672906 Z" id="Shape"></path>
                    <ellipse id="Oval" cx="62.7923077" cy="19.2607298" rx="8.86153846" ry="8.85762904"></ellipse>
                    <polyline id="Shape" points="17.0307692 54.8527132 24.7403077 54.8527132 35.64 72.5679713 43.6153846 72.5679713"></polyline>
                    <path d="M17.0307692,84.1705426 L43.6153846,84.1705426" id="Shape"></path>
                    <ellipse id="Oval" cx="8.86153846" cy="53.3072414" rx="8.86153846" ry="8.85762904"></ellipse>
                    <polyline id="Shape" points="17.0307692 115.126111 24.7403077 115.126111 35.3741538 97.4108527 43.6153846 97.4108527"></polyline>
                    <ellipse id="Oval" cx="8.86153846" cy="112.888637" rx="8.86153846" ry="8.85762904"></ellipse>
                    <ellipse id="Oval" cx="8.86153846" cy="86.4080166" rx="8.86153846" ry="8.85762904"></ellipse>
                    <polyline id="Shape" points="106.176923 54.8527132 95.7041958 54.8527132 84.6944056 72.5679713 76.6384615 72.5679713"></polyline>
                    <path d="M106.176923,84.1705426 L76.6384615,84.1705426" id="Shape"></path>
                    <ellipse id="Oval" cx="113.884615" cy="53.3072414" rx="8.86153846" ry="8.85762904"></ellipse>
                    <polyline id="Shape" points="106.176923 115.126111 95.7041958 115.126111 84.9629371 97.4108527 76.6384615 97.4108527"></polyline>
                    <ellipse id="Oval" cx="113.884615" cy="112.888637" rx="8.86153846" ry="8.85762904"></ellipse>
                    <ellipse id="Oval" cx="113.884615" cy="86.4080166" rx="8.86153846" ry="8.85762904"></ellipse>
                </g>
            </g>
        </g>
    </g>
</svg>