<?xml version="1.0" encoding="UTF-8"?>
<svg width="24px" height="24px" viewBox="0 0 24 24" version="1.1" xmlns="http://www.w3.org/2000/svg" xmlns:xlink="http://www.w3.org/1999/xlink">
    <!-- Generator: Sketch 51.2 (57519) - http://www.bohemiancoding.com/sketch -->
    <title>Gears</title>
    <desc>Created with Sketch.</desc>
    <defs></defs>
    <g id="Menu-de-Módulos" stroke="none" stroke-width="1" fill="none" fill-rule="evenodd">
        <g id="FullHd" transform="translate(-1551.000000, -178.000000)" fill="#FFFFFF" fill-rule="nonzero">
            <g id="Group-6" transform="translate(1551.000000, 167.000000)">
                <path d="M21.1,18.7 L22.5,16.4 L18.6,12.5 L16.3,13.9 C16,13.8 15.8,13.7 15.5,13.6 L14.8,11 L12,11 C5.4,11 0,16.4 0,23 C0,29.6 5.4,35 12,35 L14.8,35 L15.5,32.4 C15.8,32.3 16,32.2 16.3,32.1 L18.6,33.5 L22.5,29.6 L21.1,27.3 C21.2,27 21.3,26.8 21.4,26.5 L24,25.8 L24,20.2 L21.4,19.5 C21.3,19.2 21.2,18.9 21.1,18.7 Z M6.6,22.9 C6.6,21.9 6.7,20.9 6.9,19.9 L11.1,19.9 L11.1,25.9 L6.9,25.9 C6.7,25 6.6,23.9 6.6,22.9 Z M11,13.1 L11,17.9 L7.3,17.9 C8.1,15.5 9.5,13.6 11,13.1 Z M11,27.9 L11,32.7 C9.5,32.1 8.1,30.3 7.3,27.9 L11,27.9 Z M13,20.1 C14.2,20.5 15,21.6 15,22.9 C15,24.2 14.2,25.3 13,25.7 L13,20.1 Z M6.7,14.4 C6.1,15.4 5.6,16.6 5.2,17.9 L3.3,17.9 C4.2,16.5 5.3,15.3 6.7,14.4 Z M2.5,19.9 L4.9,19.9 C4.8,20.9 4.7,21.9 4.7,22.9 C4.7,23.9 4.8,24.9 4.9,25.9 L2.5,25.9 C2.2,25 2,23.9 2,22.9 C2,21.9 2.2,20.9 2.5,19.9 Z M3.4,27.9 L5.3,27.9 C5.7,29.2 6.2,30.4 6.8,31.4 C5.3,30.5 4.2,29.3 3.4,27.9 Z M22,24.1 L19.8,24.6 L19.6,25.1 C19.4,25.6 19.2,26.1 19,26.6 L18.7,27.1 L19.9,29 L18.2,30.7 L16.3,29.5 L15.8,29.8 C15.3,30.1 14.8,30.3 14.3,30.4 L13.8,30.6 L13.3,32.8 L13,32.8 L13,27.7 C15.3,27.2 17,25.2 17,22.8 C17,20.4 15.3,18.4 13,17.9 L13,12.9 L13.2,12.9 L13.7,15.1 L14.2,15.3 C14.7,15.5 15.2,15.7 15.7,15.9 L16.2,16.2 L18.1,15 L19.8,16.7 L18.6,18.6 L18.9,19.1 C19.1,19.6 19.4,20.1 19.5,20.6 L19.7,21.1 L21.9,21.6 L21.9,24.1 L22,24.1 Z" id="Gears"></path>
            </g>
        </g>
    </g>
</svg>