<?xml version="1.0" encoding="UTF-8" standalone="no"?>
<!-- Created with Inkscape (http://www.inkscape.org/) -->

<svg
   xmlns:dc="http://purl.org/dc/elements/1.1/"
   xmlns:cc="http://creativecommons.org/ns#"
   xmlns:rdf="http://www.w3.org/1999/02/22-rdf-syntax-ns#"
   xmlns:svg="http://www.w3.org/2000/svg"
   xmlns="http://www.w3.org/2000/svg"
   xmlns:sodipodi="http://sodipodi.sourceforge.net/DTD/sodipodi-0.dtd"
   xmlns:inkscape="http://www.inkscape.org/namespaces/inkscape"
   width="24"
   height="24"
   viewBox="0 0 24 24"
   id="svg9360"
   version="1.1"
   inkscape:version="0.91 r13725"
   sodipodi:docname="icone-rigth.svg">
  <defs
     id="defs9362" />
  <sodipodi:namedview
     id="base"
     pagecolor="#ffffff"
     bordercolor="#666666"
     borderopacity="1.0"
     inkscape:pageopacity="0.0"
     inkscape:pageshadow="2"
     inkscape:zoom="5.6"
     inkscape:cx="57.391392"
     inkscape:cy="12.206164"
     inkscape:document-units="px"
     inkscape:current-layer="layer1"
     showgrid="false"
     inkscape:window-width="1920"
     inkscape:window-height="1026"
     inkscape:window-x="0"
     inkscape:window-y="0"
     inkscape:window-maximized="1"
     units="px"
     inkscape:snap-grids="false"
     inkscape:snap-page="false" />
  <metadata
     id="metadata9365">
    <rdf:RDF>
      <cc:Work
         rdf:about="">
        <dc:format>image/svg+xml</dc:format>
        <dc:type
           rdf:resource="http://purl.org/dc/dcmitype/StillImage" />
        <dc:title></dc:title>
      </cc:Work>
    </rdf:RDF>
  </metadata>
  <g
     inkscape:label="Camada 1"
     inkscape:groupmode="layer"
     id="layer1"
     transform="translate(0,-1028.3622)">
    <g
       transform="translate(-984,138.3622)"
       id="g5595"
       style="fill:#ffffff">
      <polygon
         class="st2"
         points="1000.4,902.1 994.7,896.3 993.3,897.7 997.6,902.1 993.3,906.3 994.7,907.7 "
         id="polygon5597"
         style="fill:#ffffff" />
      <path
         inkscape:connector-curvature="0"
         class="st2"
         d="m 996,913 c 6.1,0 11,-4.9 11,-11 0,-6.1 -4.9,-11 -11,-11 -6.1,0 -11,4.9 -11,11 0,6.1 4.9,11 11,11 z m 0,-20 c 5,0 9,4 9,9 0,5 -4,9 -9,9 -5,0 -9,-4 -9,-9 0,-5 4,-9 9,-9 z"
         id="path5599"
         style="fill:#ffffff" />
    </g>
  </g>
</svg>
