<?xml version="1.0" encoding="UTF-8"?>
<svg width="25px" height="23px" viewBox="0 0 25 23" version="1.1" xmlns="http://www.w3.org/2000/svg" xmlns:xlink="http://www.w3.org/1999/xlink">
    <!-- Generator: Sketch 51 (57462) - http://www.bohemiancoding.com/sketch -->
    <title>Groupxxxhdpi/</title>
    <desc>Created with Sketch.</desc>
    <defs></defs>
    <g id="Symbols" stroke="none" stroke-width="1" fill="none" fill-rule="evenodd">
        <g id="Login-blok" transform="translate(-59.000000, -127.000000)" fill="#DFDFDF" fill-rule="nonzero">
            <g id="Group" transform="translate(59.000000, 127.000000)">
                <path d="M18.05,0.926440888 C16.65,-0.373559112 14.45,-0.273559112 13.05,1.02644089 C11.65,2.42644089 11.65,4.72644089 13.05,6.12644089 L18.05,11.1264409 L23.05,6.12644089 C24.45,4.72644089 24.45,2.42644089 23.05,1.02644089 C21.65,-0.273559112 19.35,-0.373559112 18.05,0.926440888 Z M21.55,4.62644089 L18.05,8.12644089 L14.55,4.62644089 C13.95,4.02644089 13.95,3.02644089 14.55,2.42644089 C14.85,2.12644089 15.25,1.92644089 15.65,1.92644089 C16.05,1.92644089 16.45,2.12644089 16.75,2.42644089 L18.05,3.72644089 L19.35,2.42644089 C19.95,1.82644089 20.95,1.82644089 21.55,2.42644089 C22.15,3.02644089 22.15,4.02644089 21.55,4.62644089 Z" id="Shape"></path>
                <path d="M17,20 C17,17.2 14.8,15 12,15 L5,15 C2.2,15 0,17.2 0,20 L0,23 L17,23 L17,20 Z M15,21 L2,21 L2,20 C2,18.3 3.3,17 5,17 L12,17 C13.7,17 15,18.3 15,20 L15,21 Z" id="Shape"></path>
                <path d="M4,9.5 C4,12 6,14 8.5,14 C11,14 13,12 13,9.5 C13,7 11,5 8.5,5 C6,5 4,7 4,9.5 Z M8.5,7 C9.9,7 11,8.1 11,9.5 C11,10.9 9.9,12 8.5,12 C7.1,12 6,10.9 6,9.5 C6,8.1 7.1,7 8.5,7 Z" id="Shape"></path>
            </g>
        </g>
    </g>
</svg>